<?xml version="1.0" standalone="no"?>
<!DOCTYPE svg PUBLIC "-//W3C//DTD SVG 20010904//EN"
 "http://www.w3.org/TR/2001/REC-SVG-20010904/DTD/svg10.dtd">
<svg version="1.0" xmlns="http://www.w3.org/2000/svg"
 width="2879.000000pt" height="2879.000000pt" viewBox="0 0 2879.000000 2879.000000"
 preserveAspectRatio="xMidYMid meet">
<metadata>
Created by potrace 1.14, written by Peter Selinger 2001-2017
</metadata>
<g transform="translate(0.000000,2879.000000) scale(0.100000,-0.100000)"
fill="#000000" stroke="none">
<path d="M14137 28784 c-1 -1 -87 -5 -192 -8 -104 -4 -215 -9 -245 -11 -30 -2
-98 -6 -150 -10 -52 -3 -117 -8 -145 -11 -192 -17 -203 -18 -395 -39 -36 -4
-74 -9 -85 -11 -11 -2 -42 -6 -70 -10 -44 -4 -167 -21 -290 -39 -22 -3 -51 -8
-65 -11 -14 -3 -38 -8 -55 -10 -16 -2 -41 -6 -55 -9 -14 -2 -41 -7 -60 -10
-19 -3 -91 -16 -160 -30 -69 -13 -136 -26 -150 -29 -14 -2 -55 -11 -91 -20
-37 -8 -78 -17 -90 -20 -214 -42 -672 -164 -969 -258 -257 -81 -703 -239 -830
-293 -30 -13 -125 -53 -210 -89 -85 -35 -191 -81 -235 -101 -44 -20 -111 -50
-150 -68 -121 -54 -624 -310 -756 -384 -387 -219 -799 -478 -1089 -688 -41
-29 -93 -66 -115 -82 -99 -70 -322 -241 -485 -372 -92 -74 -366 -305 -380
-321 -3 -3 -27 -25 -55 -49 -186 -165 -569 -537 -750 -732 -350 -373 -769
-887 -1030 -1264 -22 -31 -58 -83 -80 -114 -34 -47 -211 -316 -290 -441 -98
-153 -252 -419 -380 -655 -103 -190 -365 -721 -365 -740 0 -2 -15 -36 -34 -77
-18 -40 -46 -102 -61 -138 -15 -36 -33 -78 -40 -95 -8 -16 -37 -88 -65 -160
-28 -71 -55 -139 -60 -150 -36 -78 -268 -766 -295 -875 -2 -8 -20 -71 -40
-140 -52 -183 -172 -669 -189 -770 -2 -14 -7 -36 -10 -50 -3 -14 -8 -37 -10
-53 -3 -15 -7 -35 -10 -45 -8 -26 -60 -324 -72 -412 -3 -25 -8 -54 -10 -65
-13 -61 -59 -415 -69 -525 -3 -36 -7 -76 -10 -90 -2 -14 -6 -59 -10 -100 -3
-41 -7 -97 -10 -125 -35 -435 -46 -917 -31 -1370 4 -115 9 -230 11 -255 2 -25
6 -94 10 -155 3 -60 8 -126 10 -145 2 -19 7 -69 10 -110 4 -41 8 -86 10 -100
2 -14 7 -59 10 -100 4 -41 8 -82 10 -90 2 -8 6 -44 10 -80 4 -36 9 -73 11 -84
2 -10 6 -44 9 -75 3 -31 8 -67 11 -81 2 -14 7 -38 9 -55 3 -16 7 -43 10 -60 2
-16 7 -48 10 -70 4 -22 8 -51 11 -65 2 -14 7 -41 10 -60 5 -38 11 -66 49 -265
26 -134 28 -146 46 -230 6 -27 15 -68 19 -90 39 -186 175 -691 259 -960 212
-674 548 -1464 868 -2045 44 -80 95 -172 113 -205 18 -33 41 -72 52 -87 10
-14 18 -29 18 -32 0 -26 449 -723 583 -906 30 -41 73 -99 94 -128 65 -89 251
-332 337 -437 94 -117 330 -395 381 -449 11 -12 63 -69 115 -126 52 -57 128
-138 167 -179 40 -42 73 -79 73 -83 0 -4 -18 -46 -41 -95 -23 -48 -78 -169
-124 -268 -45 -99 -100 -216 -120 -260 -21 -44 -50 -107 -65 -140 -15 -33 -44
-96 -65 -140 -35 -76 -303 -655 -367 -795 -17 -36 -42 -90 -55 -120 -14 -30
-52 -111 -84 -179 -33 -68 -59 -126 -59 -128 0 -2 -17 -41 -39 -86 -21 -45
-121 -260 -221 -477 -100 -217 -202 -437 -226 -488 -24 -52 -44 -95 -44 -97 0
-1 -29 -64 -65 -140 -36 -75 -65 -138 -65 -140 0 -2 -21 -47 -46 -102 -25 -54
-59 -125 -74 -158 -110 -237 -348 -752 -372 -805 -17 -36 -44 -94 -60 -130
-32 -68 -76 -163 -123 -265 -15 -33 -49 -107 -76 -164 -27 -57 -49 -105 -49
-107 0 -1 -29 -64 -65 -139 -36 -75 -65 -139 -65 -141 0 -2 -27 -60 -60 -130
-33 -69 -60 -128 -60 -131 0 -2 -20 -45 -44 -96 -24 -51 -99 -210 -165 -355
-67 -144 -141 -304 -165 -355 -24 -51 -53 -114 -66 -142 -29 -65 -118 -259
-165 -360 -108 -233 -213 -462 -225 -490 -49 -112 -69 -317 -44 -458 73 -420
438 -728 854 -721 121 2 170 9 255 35 140 43 260 115 361 216 101 101 137 159
249 408 58 128 179 393 211 463 19 40 34 74 34 76 0 2 17 42 39 88 45 96 67
146 163 358 39 85 83 182 98 215 15 33 60 132 100 220 40 88 85 187 100 220
15 33 68 150 118 260 49 110 105 234 125 275 19 41 45 98 57 125 141 311 271
600 290 640 27 61 112 248 150 330 15 33 37 80 48 105 119 263 531 1170 554
1220 17 36 56 124 88 195 32 72 71 159 88 195 17 36 50 110 75 165 25 55 59
129 75 165 17 36 121 265 232 510 222 489 238 523 316 688 30 62 54 114 54
116 0 2 32 70 71 152 39 82 75 159 80 172 9 22 9 22 36 5 16 -10 30 -20 33
-23 3 -3 36 -27 73 -55 37 -27 89 -66 115 -85 77 -57 519 -351 642 -427 128
-79 357 -214 440 -260 30 -17 107 -59 170 -93 118 -65 489 -252 615 -310 602
-277 1138 -477 1740 -649 166 -47 398 -108 445 -116 18 -3 36 -8 40 -10 3 -2
17 -6 31 -9 13 -3 85 -18 159 -35 74 -16 146 -32 160 -35 14 -3 95 -18 180
-35 85 -17 173 -33 195 -36 22 -3 51 -8 65 -11 14 -2 34 -6 45 -8 11 -2 36 -6
55 -10 19 -3 55 -8 80 -11 25 -3 56 -7 70 -10 14 -3 49 -7 79 -10 30 -3 57 -7
60 -9 3 -2 37 -7 74 -11 37 -3 76 -8 86 -10 10 -2 54 -6 97 -10 43 -4 81 -9
84 -10 3 -2 52 -6 110 -10 58 -4 107 -8 110 -10 3 -2 57 -6 120 -10 63 -4 135
-8 160 -10 282 -24 1198 -24 1460 0 25 2 88 7 140 10 52 3 113 8 135 10 22 2
72 7 110 10 39 4 84 8 100 10 17 2 55 7 85 10 30 3 69 7 85 9 17 2 59 8 95 12
36 4 67 8 70 9 3 1 34 5 70 9 36 5 74 10 85 12 10 2 37 6 60 9 43 7 71 11 123
20 17 3 47 7 65 10 135 22 257 46 497 95 58 12 123 26 145 32 22 6 51 12 65
15 14 2 121 28 238 59 1432 366 2733 973 3946 1838 l150 107 16 -33 c8 -18 28
-62 44 -98 16 -36 52 -112 79 -170 137 -290 183 -388 239 -515 42 -94 62 -139
134 -293 24 -52 44 -95 44 -97 0 -2 15 -36 34 -77 32 -70 46 -101 96 -213 12
-27 38 -84 57 -125 20 -41 52 -113 73 -160 21 -47 51 -114 68 -150 17 -36 144
-315 282 -620 284 -627 325 -716 370 -815 18 -38 51 -113 75 -165 24 -52 56
-124 73 -160 16 -36 39 -87 52 -115 12 -27 40 -88 61 -133 22 -46 39 -85 39
-87 0 -2 20 -45 44 -97 24 -51 60 -131 81 -178 37 -83 66 -146 124 -272 15
-35 80 -178 144 -318 63 -140 129 -284 145 -320 16 -36 42 -92 57 -125 111
-246 373 -821 395 -870 15 -33 51 -112 80 -175 28 -63 64 -142 79 -175 16 -33
79 -172 141 -310 62 -137 132 -279 156 -315 139 -212 359 -353 603 -388 61 -9
303 -8 367 1 238 33 474 190 604 402 165 269 175 559 30 869 -52 112 -89 192
-185 401 -45 99 -98 214 -118 255 -19 41 -48 104 -65 140 -100 218 -155 336
-196 423 -25 55 -46 100 -46 102 0 2 -61 134 -135 290 -13 28 -38 82 -56 120
-62 137 -87 191 -122 265 -19 41 -46 100 -60 130 -13 30 -40 89 -60 130 -38
81 -61 130 -157 340 -34 74 -74 162 -90 195 -31 66 -88 190 -126 273 -13 28
-35 76 -48 105 -13 28 -47 101 -75 160 -28 60 -51 110 -51 112 0 1 -24 54 -54
116 -29 63 -64 137 -76 164 -13 28 -47 101 -76 163 -30 63 -54 115 -54 118 0
2 -20 46 -45 98 -25 53 -99 211 -164 353 -65 142 -135 292 -154 333 -19 41
-73 158 -120 260 -134 292 -157 341 -187 405 -31 66 -50 107 -215 465 -62 135
-132 286 -155 335 -45 96 -57 123 -182 395 -44 96 -99 213 -120 260 -22 47
-53 113 -69 148 -55 118 -87 187 -134 287 -26 55 -55 121 -65 146 -19 46 -19
47 3 66 101 90 416 444 736 828 9 11 75 97 147 190 333 432 624 868 903 1354
39 68 71 124 71 126 0 1 27 51 61 111 76 136 296 581 382 774 221 494 419
1035 566 1545 55 195 137 507 147 565 3 14 10 43 16 65 5 22 12 51 14 65 3 14
7 31 10 39 2 8 7 30 10 50 3 20 9 52 14 71 5 19 12 49 14 65 3 17 8 41 11 55
2 14 9 48 15 75 5 28 12 64 15 80 2 17 7 41 10 55 2 14 7 39 10 55 2 17 7 41
10 55 3 14 7 41 9 60 3 19 14 98 26 175 11 77 22 156 25 175 2 19 9 73 15 120
6 47 13 100 15 119 3 18 8 63 10 100 3 36 7 82 10 101 2 19 6 67 10 105 3 39
7 97 10 130 22 266 29 478 29 875 0 212 -3 450 -7 530 -5 80 -10 179 -12 221
-2 42 -7 103 -10 135 -3 33 -7 91 -10 129 -7 99 -15 183 -30 295 -2 14 -6 59
-10 100 -3 41 -8 82 -10 90 -2 8 -7 36 -10 62 -3 26 -7 62 -10 80 -2 18 -7 51
-10 73 -3 22 -10 65 -15 95 -5 30 -12 73 -15 95 -3 22 -21 128 -41 235 -177
972 -489 1951 -904 2835 -61 130 -234 478 -278 560 -312 575 -611 1043 -976
1530 -81 109 -361 463 -375 475 -3 3 -28 32 -56 65 -287 343 -812 882 -1155
1184 -52 46 -111 98 -130 115 -51 47 -260 220 -370 306 -52 41 -102 80 -110
87 -80 65 -212 163 -219 163 -5 0 -11 4 -13 8 -10 25 -568 405 -818 557 -80
48 -173 105 -208 126 -35 22 -65 39 -67 39 -2 0 -36 19 -77 43 -40 24 -109 63
-153 87 -44 23 -105 57 -135 73 -245 135 -799 394 -1085 507 -44 17 -93 38
-110 45 -16 7 -93 37 -170 65 -77 28 -149 56 -160 61 -25 11 -530 179 -553
184 -9 2 -70 19 -134 39 -99 30 -393 110 -446 121 -10 2 -73 17 -142 34 -69
17 -136 33 -150 35 -14 3 -90 19 -170 36 -80 17 -156 32 -170 35 -60 12 -313
56 -338 60 -15 2 -56 8 -92 14 -85 13 -125 19 -185 26 -27 4 -61 8 -75 10 -14
2 -47 7 -75 10 -27 3 -63 8 -80 10 -16 2 -57 6 -90 10 -33 3 -78 8 -100 10
-22 3 -70 7 -106 11 -36 3 -86 7 -110 10 -24 2 -89 6 -144 9 -55 3 -118 8
-140 10 -98 11 -937 28 -948 19z m1298 -1168 c22 -2 85 -7 140 -11 55 -4 118
-8 140 -10 22 -2 80 -6 129 -10 49 -4 97 -8 106 -10 9 -2 53 -6 96 -10 43 -3
86 -8 94 -10 8 -2 42 -7 75 -10 33 -4 67 -8 75 -10 8 -2 42 -7 75 -10 33 -4
67 -8 75 -10 8 -2 38 -7 65 -11 28 -3 59 -8 70 -10 11 -3 36 -7 55 -10 19 -3
82 -14 140 -24 135 -25 145 -27 205 -39 28 -6 59 -12 70 -14 71 -15 101 -21
105 -22 3 -1 32 -7 65 -15 393 -88 1030 -273 1270 -370 17 -6 37 -13 45 -15
48 -11 501 -194 700 -283 74 -34 148 -67 164 -74 51 -23 489 -244 561 -283 60
-33 191 -107 315 -177 42 -24 210 -126 248 -150 15 -10 39 -24 54 -33 138 -78
655 -441 869 -610 113 -89 273 -218 285 -230 6 -5 36 -30 65 -55 69 -58 202
-173 258 -225 25 -22 74 -67 110 -100 86 -78 487 -480 571 -571 36 -39 94
-104 130 -144 36 -40 70 -78 75 -84 260 -287 614 -753 890 -1170 324 -490 553
-909 845 -1541 105 -228 270 -655 376 -973 46 -137 143 -452 150 -486 2 -10
14 -58 28 -105 22 -77 49 -188 92 -366 23 -100 76 -353 89 -430 3 -16 10 -54
16 -84 6 -30 12 -64 14 -75 9 -61 15 -104 20 -126 3 -14 7 -41 10 -60 6 -47
25 -179 30 -210 3 -14 7 -50 10 -80 3 -30 8 -68 10 -85 2 -16 7 -52 10 -80 3
-27 8 -68 10 -90 6 -45 11 -101 20 -225 4 -47 8 -101 10 -120 4 -36 14 -243
20 -390 5 -114 5 -632 0 -745 -8 -195 -15 -332 -20 -385 -2 -30 -7 -89 -10
-130 -11 -139 -25 -277 -40 -390 -3 -19 -7 -60 -10 -90 -3 -30 -10 -80 -15
-110 -8 -48 -12 -80 -25 -177 -2 -12 -6 -34 -9 -50 -3 -15 -8 -48 -11 -73 -14
-98 -96 -508 -137 -680 -11 -47 -22 -93 -24 -103 -2 -10 -6 -27 -9 -37 -3 -10
-8 -27 -10 -38 -10 -54 -76 -287 -146 -517 -52 -174 -160 -495 -196 -585 -4
-8 -7 -17 -8 -20 -1 -3 -5 -14 -10 -25 -4 -11 -36 -92 -70 -180 -128 -325
-334 -773 -487 -1055 -20 -36 -55 -101 -78 -145 -57 -105 -198 -346 -271 -464
-33 -51 -59 -95 -59 -96 0 -5 -282 -429 -289 -435 -4 -3 -29 -36 -56 -75 -264
-377 -627 -815 -974 -1177 -80 -83 -101 -100 -101 -79 0 5 -21 53 -46 108 -25
54 -68 145 -94 203 -27 58 -71 154 -99 213 -28 60 -51 110 -51 112 0 1 -24 54
-54 116 -29 63 -65 139 -79 169 -37 81 -76 166 -182 395 -53 114 -88 191 -120
260 -50 109 -92 199 -127 275 -48 103 -140 301 -176 380 -44 96 -145 314 -186
402 -20 43 -51 111 -70 150 -47 104 -78 170 -126 273 -23 50 -61 133 -85 185
-24 52 -68 148 -99 214 -31 65 -56 120 -56 122 0 1 -20 45 -44 96 -24 51 -70
149 -101 218 -32 69 -72 157 -90 195 -18 39 -77 165 -130 280 -54 116 -113
244 -132 285 -32 70 -223 482 -291 630 -16 36 -47 101 -67 145 -21 44 -50 107
-65 140 -15 33 -45 96 -65 140 -21 44 -75 161 -120 260 -46 99 -100 216 -120
260 -21 44 -51 109 -67 145 -31 67 -67 144 -123 265 -18 39 -85 183 -148 320
-63 138 -132 286 -152 330 -21 44 -50 107 -65 140 -47 103 -91 197 -122 265
-17 36 -57 121 -88 190 -84 182 -116 251 -176 379 -30 62 -54 115 -54 117 0 2
-20 45 -44 96 -39 83 -70 150 -185 401 -17 37 -45 97 -62 135 -17 37 -44 94
-59 127 -29 63 -84 182 -151 323 -21 45 -39 84 -39 86 0 3 -29 66 -65 141 -36
76 -65 139 -65 140 0 2 -21 48 -46 102 -47 100 -90 191 -139 298 -15 33 -40
87 -55 120 -16 33 -42 89 -58 125 -17 36 -101 218 -187 405 -87 187 -171 369
-188 405 -16 36 -42 92 -57 125 -15 33 -44 96 -65 140 -48 103 -86 186 -118
255 -14 30 -42 91 -62 135 -21 44 -50 108 -66 143 -77 166 -192 415 -249 537
-15 33 -69 150 -120 260 -51 110 -120 261 -155 335 -34 74 -86 187 -115 250
-29 63 -77 166 -106 229 -30 62 -54 114 -54 116 0 2 -22 50 -49 107 -55 117
-78 166 -203 438 -50 107 -104 224 -120 260 -17 36 -58 124 -90 195 -33 72
-74 159 -90 195 -118 257 -167 332 -283 437 -118 106 -293 190 -446 212 -104
16 -881 11 -959 -5 -236 -49 -420 -168 -553 -355 -46 -65 -80 -134 -217 -434
-15 -33 -43 -94 -62 -135 -20 -41 -62 -131 -93 -200 -32 -69 -72 -156 -90
-195 -18 -38 -47 -100 -64 -137 -32 -69 -68 -148 -126 -273 -18 -38 -45 -97
-60 -130 -15 -33 -49 -107 -76 -163 -27 -57 -49 -105 -49 -107 0 -2 -29 -65
-65 -140 -36 -76 -65 -139 -65 -140 0 -2 -20 -45 -44 -97 -41 -89 -196 -423
-257 -555 -16 -35 -43 -93 -60 -130 -79 -170 -98 -211 -118 -258 -13 -27 -27
-58 -32 -67 -5 -10 -90 -192 -188 -405 -98 -214 -195 -424 -216 -468 -21 -44
-48 -104 -61 -133 -13 -29 -40 -87 -60 -130 -33 -69 -53 -112 -129 -277 -13
-27 -50 -108 -83 -180 -129 -279 -177 -384 -220 -475 -85 -181 -122 -263 -122
-265 0 -2 -25 -56 -56 -121 -31 -66 -75 -162 -99 -214 -24 -52 -61 -133 -83
-180 -41 -89 -87 -186 -130 -280 -14 -30 -26 -57 -27 -60 -2 -6 -32 -71 -85
-185 -85 -182 -351 -757 -387 -835 -14 -30 -36 -77 -48 -105 -13 -27 -40 -86
-60 -130 -21 -44 -50 -107 -65 -140 -15 -33 -98 -213 -185 -400 -212 -459
-205 -442 -205 -454 0 -5 -3 -11 -8 -13 -4 -1 -29 -52 -56 -113 -27 -60 -69
-153 -94 -205 -24 -52 -52 -113 -62 -135 -10 -22 -46 -98 -79 -169 -34 -70
-61 -130 -61 -131 0 -2 -20 -45 -44 -96 -24 -52 -55 -119 -69 -149 -26 -58
-130 -282 -197 -426 -22 -47 -40 -87 -40 -89 0 -3 -68 -150 -135 -290 -18 -38
-88 -189 -155 -335 -67 -146 -135 -292 -150 -325 -47 -101 -151 -327 -177
-385 -14 -30 -42 -91 -63 -135 -21 -44 -52 -111 -70 -150 -56 -123 -137 -298
-176 -380 -20 -44 -38 -82 -39 -85 -1 -3 -13 -30 -27 -60 -42 -91 -89 -192
-115 -250 -14 -30 -42 -91 -63 -135 -49 -104 -106 -226 -137 -295 -14 -30 -38
-82 -53 -115 -15 -33 -42 -91 -60 -130 -18 -38 -48 -104 -67 -145 -19 -41 -59
-127 -88 -190 -29 -63 -69 -151 -90 -195 -20 -44 -51 -109 -67 -145 -16 -36
-42 -92 -58 -125 -65 -139 -120 -257 -120 -260 0 -2 -27 -61 -61 -132 -33 -70
-70 -149 -81 -176 -11 -26 -24 -47 -28 -47 -9 0 -214 261 -364 463 -99 134
-381 547 -439 643 -213 352 -216 359 -297 504 -80 146 -135 250 -203 386 -64
127 -177 363 -177 369 0 2 -15 36 -34 77 -68 147 -202 471 -253 613 -52 145
-155 441 -158 455 -2 8 -18 60 -35 115 -18 55 -36 114 -40 130 -5 17 -18 64
-30 105 -37 129 -108 394 -116 435 -3 11 -8 38 -13 60 -5 22 -18 81 -29 130
-12 50 -23 101 -26 115 -4 24 -59 313 -71 375 -3 17 -12 75 -21 130 -8 55 -17
111 -19 125 -2 14 -7 45 -10 70 -3 25 -8 52 -10 60 -2 8 -7 47 -11 85 -3 39
-8 78 -9 87 -2 9 -6 48 -10 85 -3 37 -8 79 -10 93 -5 25 -10 84 -20 220 -3 41
-8 95 -10 120 -27 287 -27 1244 0 1510 2 19 6 75 10 125 3 49 8 103 10 120 2
16 7 63 10 103 4 41 8 81 10 90 1 9 6 51 11 92 4 41 8 77 9 80 1 3 5 34 9 70
6 54 33 230 51 340 2 14 7 43 10 65 4 22 8 47 10 55 2 8 7 31 10 50 13 78 17
99 46 239 17 80 44 202 60 271 17 69 32 132 34 140 6 29 77 296 96 365 89 312
282 870 376 1085 8 19 19 44 23 55 144 347 376 829 524 1089 31 54 56 100 56
102 0 4 199 337 252 421 148 236 409 609 568 815 44 56 97 125 118 152 20 26
42 53 47 60 6 6 66 78 134 159 67 82 130 157 139 166 10 9 37 39 61 66 179
205 549 582 751 766 185 170 386 342 540 464 41 33 80 65 87 71 20 19 392 296
468 349 39 27 153 104 255 172 102 68 190 127 195 131 48 35 374 226 590 344
292 160 887 446 953 458 4 1 18 8 32 15 41 22 63 30 429 172 138 54 656 222
791 257 8 2 49 14 90 26 41 12 86 23 100 26 14 3 50 12 80 20 30 9 62 17 70
19 8 2 53 12 100 24 47 11 139 32 205 46 150 33 146 32 186 39 19 3 68 12 109
21 41 9 88 18 105 20 16 2 39 6 50 9 11 2 40 7 65 10 25 3 56 8 70 11 13 2 42
7 65 10 22 4 51 8 65 10 14 2 45 7 70 10 25 3 56 8 70 10 14 2 52 7 84 10 33
3 62 8 65 9 3 2 42 7 86 10 44 3 91 8 105 10 23 4 86 10 240 22 36 2 85 6 110
9 25 2 113 7 195 11 83 3 151 7 153 9 5 5 923 -3 967 -9z m-932 -5091 c98 -47
129 -92 267 -398 68 -150 147 -324 175 -387 29 -63 65 -142 80 -175 49 -107
182 -398 210 -460 91 -202 116 -256 140 -310 15 -33 43 -93 62 -134 19 -41 52
-113 73 -160 21 -47 49 -112 64 -143 14 -32 38 -84 52 -115 29 -64 59 -132 94
-208 13 -27 36 -79 52 -115 16 -36 40 -87 53 -115 13 -27 70 -151 125 -275 56
-124 115 -253 131 -288 16 -34 47 -102 68 -150 21 -48 50 -112 64 -142 14 -30
107 -235 207 -455 100 -220 191 -420 202 -445 12 -25 44 -97 73 -160 95 -210
396 -872 477 -1050 44 -96 91 -200 105 -230 14 -30 40 -88 59 -128 19 -40 34
-75 34 -77 0 -2 23 -51 50 -110 28 -59 50 -108 50 -110 0 -2 18 -43 41 -92 22
-48 104 -227 181 -398 77 -170 158 -348 179 -393 22 -46 39 -85 39 -87 0 -1
22 -49 49 -106 26 -57 65 -142 86 -189 21 -47 51 -114 68 -150 16 -36 85 -189
154 -340 68 -151 135 -297 148 -325 12 -27 69 -151 125 -275 56 -124 113 -250
127 -280 69 -150 230 -505 263 -580 21 -47 52 -116 70 -155 53 -115 77 -167
103 -225 13 -30 36 -80 50 -110 34 -73 66 -145 120 -265 25 -55 65 -144 91
-198 25 -54 46 -100 46 -102 0 -2 20 -46 45 -99 25 -53 45 -99 45 -101 0 -2
17 -41 39 -87 58 -125 77 -166 366 -803 146 -324 287 -632 311 -683 24 -51 44
-95 44 -98 0 -2 20 -47 45 -100 25 -52 45 -97 45 -99 0 -1 17 -41 39 -87 21
-45 136 -299 256 -563 120 -264 242 -531 271 -594 30 -62 54 -115 54 -117 0
-2 32 -69 70 -150 39 -80 70 -149 70 -153 0 -12 -238 -176 -536 -368 -23 -15
-261 -160 -307 -187 -318 -187 -809 -436 -1137 -576 -80 -34 -164 -70 -187
-81 -24 -10 -49 -19 -56 -19 -7 0 -17 -4 -23 -9 -13 -12 -379 -149 -574 -215
-323 -108 -718 -221 -945 -271 -11 -2 -101 -22 -200 -44 -99 -22 -193 -42
-210 -45 -16 -3 -41 -8 -55 -10 -14 -3 -42 -8 -64 -11 -21 -3 -41 -7 -45 -9
-3 -2 -26 -7 -51 -10 -25 -3 -56 -8 -70 -11 -32 -6 -133 -23 -185 -30 -22 -3
-56 -8 -75 -11 -19 -3 -51 -8 -70 -10 -19 -2 -51 -6 -70 -9 -109 -15 -216 -27
-365 -40 -38 -3 -86 -8 -105 -10 -19 -3 -78 -7 -130 -10 -52 -4 -115 -8 -140
-10 -287 -22 -1027 -22 -1305 0 -22 2 -83 6 -135 9 -52 4 -111 8 -130 11 -19
2 -66 7 -105 10 -38 3 -86 8 -105 10 -19 2 -60 7 -90 10 -30 3 -71 7 -90 10
-82 10 -197 26 -220 29 -14 3 -74 12 -134 21 -59 9 -118 18 -130 20 -11 3 -50
10 -86 16 -513 91 -1045 227 -1530 389 -193 65 -464 164 -535 195 -16 7 -75
31 -130 53 -111 45 -329 138 -360 155 -11 6 -22 12 -25 13 -32 8 -495 238
-655 326 -66 36 -136 74 -155 84 -19 11 -36 22 -38 27 -2 4 -8 7 -12 7 -19 0
-423 248 -640 393 -229 153 -693 494 -762 560 -7 7 -33 28 -58 47 -25 19 -47
37 -50 40 -3 3 -32 28 -65 55 -33 28 -74 63 -91 78 l-31 28 18 37 c20 42 70
151 294 642 57 124 115 252 130 285 72 158 246 537 270 590 15 33 111 242 212
465 278 609 392 858 425 930 26 55 140 305 258 565 17 39 42 93 55 120 13 28
74 160 135 295 62 135 122 268 135 295 12 28 35 77 50 110 83 185 344 754 381
833 24 52 44 95 44 97 0 4 38 88 111 244 27 57 49 105 49 107 0 3 25 57 55
120 30 64 55 118 55 119 0 2 16 39 36 82 38 81 84 182 112 243 8 19 37 81 64
138 26 57 48 105 48 107 0 2 40 90 89 197 49 106 101 220 116 253 15 33 37 83
50 110 13 28 40 86 60 130 20 43 65 142 100 220 34 77 82 181 105 230 23 50
51 110 62 135 101 222 446 979 470 1030 17 36 64 139 105 230 72 158 158 348
208 455 26 56 31 68 210 460 70 154 147 322 171 374 24 51 44 95 44 97 0 1 18
42 41 91 23 48 86 187 141 308 55 120 104 226 108 235 9 17 35 75 75 165 15
33 41 89 57 125 17 36 76 166 133 290 56 124 116 254 133 290 29 64 42 92 127
280 24 52 64 139 89 193 25 54 46 99 46 101 0 2 23 53 50 112 102 220 196 425
240 524 21 47 54 119 73 160 19 41 47 102 61 135 119 262 145 308 201 351 102
78 245 93 358 39z"/>
</g>
</svg>
